<?xml version="1.0" standalone="no"?>
<svg xmlns:xlink="http://www.w3.org/1999/xlink" id="wave" style="transform:rotate(180deg); transition: 0.3s" viewBox="0 0 1440 100" version="1.1" xmlns="http://www.w3.org/2000/svg"><defs><linearGradient id="sw-gradient-0" x1="0" x2="0" y1="1" y2="0"><stop stop-color="rgba(246, 246, 255, 1)" offset="0%"/><stop stop-color="rgba(246, 246, 255, 1)" offset="100%"/></linearGradient></defs><path style="transform:translate(0, 0px); opacity:1" fill="url(#sw-gradient-0)" d="M0,0L26.7,1.7C53.3,3,107,7,160,20C213.3,33,267,57,320,65C373.3,73,427,67,480,53.3C533.3,40,587,20,640,23.3C693.3,27,747,53,800,60C853.3,67,907,53,960,41.7C1013.3,30,1067,20,1120,15C1173.3,10,1227,10,1280,20C1333.3,30,1387,50,1440,58.3C1493.3,67,1547,63,1600,53.3C1653.3,43,1707,27,1760,28.3C1813.3,30,1867,50,1920,55C1973.3,60,2027,50,2080,41.7C2133.3,33,2187,27,2240,23.3C2293.3,20,2347,20,2400,25C2453.3,30,2507,40,2560,50C2613.3,60,2667,70,2720,75C2773.3,80,2827,80,2880,68.3C2933.3,57,2987,33,3040,21.7C3093.3,10,3147,10,3200,13.3C3253.3,17,3307,23,3360,30C3413.3,37,3467,43,3520,45C3573.3,47,3627,43,3680,43.3C3733.3,43,3787,47,3813,48.3L3840,50L3840,100L3813.3,100C3786.7,100,3733,100,3680,100C3626.7,100,3573,100,3520,100C3466.7,100,3413,100,3360,100C3306.7,100,3253,100,3200,100C3146.7,100,3093,100,3040,100C2986.7,100,2933,100,2880,100C2826.7,100,2773,100,2720,100C2666.7,100,2613,100,2560,100C2506.7,100,2453,100,2400,100C2346.7,100,2293,100,2240,100C2186.7,100,2133,100,2080,100C2026.7,100,1973,100,1920,100C1866.7,100,1813,100,1760,100C1706.7,100,1653,100,1600,100C1546.7,100,1493,100,1440,100C1386.7,100,1333,100,1280,100C1226.7,100,1173,100,1120,100C1066.7,100,1013,100,960,100C906.7,100,853,100,800,100C746.7,100,693,100,640,100C586.7,100,533,100,480,100C426.7,100,373,100,320,100C266.7,100,213,100,160,100C106.7,100,53,100,27,100L0,100Z"/></svg>